<svg width="122" height="122" viewBox="0 0 122 122" fill="none" xmlns="http://www.w3.org/2000/svg">
<path d="M29.3801 4.05069C28.9512 4.28897 28.427 4.86085 28.1887 5.28975C27.7836 6.02843 27.7598 8.60186 27.6883 59.8562L27.6406 113.66H19.3961C12.2 113.66 11.0562 113.708 10.3176 114.065C9.15 114.613 8.57812 115.638 8.57812 117.21C8.57812 118.354 8.64961 118.569 9.48359 119.379C10.2223 120.141 10.6035 120.308 11.6758 120.451C12.3906 120.523 21.6121 120.57 32.168 120.523C50.8492 120.451 51.3734 120.427 52.1598 119.975C54.3758 118.664 54.352 115.495 52.1359 114.137C51.3973 113.684 50.9207 113.66 42.9859 113.66H34.6223L34.4555 72.0323C34.3602 49.1097 34.3125 24.7812 34.3363 17.9663C34.3602 6.12373 34.3602 5.5042 33.9312 4.9085C32.9543 3.59795 30.7859 3.16905 29.3801 4.05069Z" fill="url(#paint0_linear_1_2924)"/>
<path d="M49.2045 1.83467C47.5127 2.07295 44.2959 2.93076 42.4135 3.62178C40.5549 4.31279 35.1459 6.93389 34.717 7.36279C34.6217 7.45811 34.574 20.4683 34.5979 36.2663L34.6694 65.0269L35.6225 64.169C36.9092 63.0253 40.0069 60.9999 42.1514 59.9276C46.1307 57.9261 51.2776 56.7108 56.3529 56.5917C59.2838 56.5202 64.4069 56.9015 65.6936 57.2827C66.599 57.5448 71.3647 58.069 74.7006 58.2835C76.9881 58.4026 79.7998 58.2597 83.6838 57.7593C85.1135 57.5925 88.1635 56.8062 90.594 55.996C93.644 54.9714 97.6947 52.803 99.3627 51.3019C99.6963 50.9921 100.03 50.7538 100.125 50.7538C100.268 50.7538 102.317 48.9429 103.39 47.8706C107.393 43.8675 110.919 37.9581 112.802 32.1202C113.588 29.7136 113.66 29.0464 113.255 27.7597C113.04 26.9972 111.539 25.7343 110.848 25.6866C110.062 25.639 110.205 25.639 106.154 25.9726C100.959 26.4015 94.8354 25.7104 90.4272 24.1855C83.0404 21.6358 77.8697 18.0378 73.1041 12.1761C71.5076 10.1983 68.41 7.10069 66.9565 6.02842C64.2639 4.02686 60.499 2.4542 57.1869 1.92998C55.6858 1.6917 50.6819 1.62022 49.2045 1.83467Z" fill="url(#paint1_linear_1_2924)"/>
<defs>
<linearGradient id="paint0_linear_1_2924" x1="8.57812" y1="62.0649" x2="53.8099" y2="62.0649" gradientUnits="userSpaceOnUse">
<stop stop-color="#6A5A39"/>
<stop offset="0.01" stop-color="#6A5A39"/>
<stop offset="0.28" stop-color="#917A48"/>
<stop offset="0.52" stop-color="#695935"/>
<stop offset="0.76" stop-color="#947C48"/>
<stop offset="0.99" stop-color="#73613C"/>
<stop offset="1" stop-color="#73613C"/>
</linearGradient>
<linearGradient id="paint1_linear_1_2924" x1="34.5918" y1="27.0349" x2="113.497" y2="27.0349" gradientUnits="userSpaceOnUse">
<stop stop-color="#E8B843" stop-opacity="0.89"/>
<stop offset="0.0709998" stop-color="#917021"/>
<stop offset="0.5" stop-color="#FFD36A"/>
<stop offset="0.936" stop-color="#917021"/>
<stop offset="1" stop-color="#E8B843" stop-opacity="0.89"/>
</linearGradient>
</defs>
</svg>
