<svg width="100" height="100" viewBox="0 0 98 100" fill="none" xmlns="http://www.w3.org/2000/svg">
<path d="M42.8945 0.655579C21.7782 3.59716 5.25598 19.9623 1.46795 41.6513C1.04482 44.0543 0.984375 44.9657 0.984375 50.041C0.984375 55.1163 1.04482 56.0277 1.46795 58.4307C5.13509 79.4361 20.6499 95.3869 41.0811 99.1571C43.4184 99.5922 44.3049 99.6543 49.2415 99.6543C54.178 99.6543 55.0645 99.5922 57.4018 99.1571C77.833 95.3869 93.3478 79.4361 97.015 58.4307C97.4381 56.0277 97.4985 55.1163 97.4985 50.041C97.4985 44.9657 97.4381 44.0543 97.015 41.6513C93.2269 19.9001 76.5838 3.49358 55.4272 0.634857C52.4855 0.241272 45.7355 0.241272 42.8945 0.655579ZM53.231 10.2882C60.1421 11.0547 66.7107 13.727 72.6346 18.2015L73.1181 18.5536L45.8564 46.5608L18.6148 74.5887L18.2723 74.0915C14.7664 69.1406 12.4895 64.086 11.2806 58.5136C7.15 39.2897 17.4462 19.8173 35.5602 12.6291C38.4012 11.4897 41.8266 10.7025 45.9169 10.2054C47.287 10.0189 51.3974 10.0811 53.231 10.2882ZM80.7748 26.7776C83.1322 30.2371 84.7643 33.4894 85.9733 37.1146C89.3382 47.1201 88.7135 57.7885 84.2001 67.3383C80.2509 75.7073 74.0047 82.1084 65.9249 86.0857C52.7474 92.5489 37.9983 90.9953 25.8484 81.8805L25.3648 81.5284L52.5661 53.5626C67.5368 38.1711 79.8076 25.5969 79.8681 25.5969C79.9285 25.5969 80.3315 26.1355 80.7748 26.7776Z" fill="url(#paint0_linear_1_2930)"/>
<defs>
<linearGradient id="paint0_linear_1_2930" x1="0.984374" y1="40.067" x2="97.4985" y2="40.067" gradientUnits="userSpaceOnUse">
<stop stop-color="#E8B843" stop-opacity="0.89"/>
<stop offset="0.0709998" stop-color="#917021"/>
<stop offset="0.5" stop-color="#FFD36A"/>
<stop offset="0.936" stop-color="#917021"/>
<stop offset="1" stop-color="#E8B843" stop-opacity="0.89"/>
</linearGradient>
</defs>
</svg>
